<?xml version="1.0" encoding="utf-8"?>
<!-- Generator: Adobe Illustrator 14.0.0, SVG Export Plug-In . SVG Version: 6.00 Build 43363)  -->
<!DOCTYPE svg PUBLIC "-//W3C//DTD SVG 1.1//EN" "http://www.w3.org/Graphics/SVG/1.1/DTD/svg11.dtd">
<svg version="1.1" id="Layer_1" xmlns="http://www.w3.org/2000/svg" xmlns:xlink="http://www.w3.org/1999/xlink" x="0px" y="0px"
	 width="24px" height="24px" viewBox="0 0 24 24" enable-background="new 0 0 24 24" xml:space="preserve">
<path fill="#FFFFFF" d="M10.984,16h3v-3h5H19l-0.016,3H21v-5h-6V5l-3-3L9,5v2H3v14h7.984V16z M11,5h2v2h-2V5z M11,9h2v2h-2V9z
	 M11,13h2v2h-2V13z M7,19H5v-2h2V19z M7,15H5v-2h2V15z M7,11H5V9h2V11z"/>
<polygon fill="#FFFFFF" points="19,17.5 17.484,17.5 17.484,17 17.484,15 17.484,14.5 17,14.5 15.484,14.5 15.484,17.5 13,17.5 
	12.484,17.5 12.484,19 12.484,19.5 15.484,19.5 15.484,21 15.484,22.5 17.484,22.5 17.484,21 17.484,19.5 20.484,19.5 20.484,17.5 
	"/>
</svg>
