<?xml version="1.0" encoding="utf-8"?>
<!-- Generator: Adobe Illustrator 14.0.0, SVG Export Plug-In . SVG Version: 6.00 Build 43363)  -->
<!DOCTYPE svg PUBLIC "-//W3C//DTD SVG 1.1//EN" "http://www.w3.org/Graphics/SVG/1.1/DTD/svg11.dtd">
<svg version="1.1" id="Layer_1" xmlns="http://www.w3.org/2000/svg" xmlns:xlink="http://www.w3.org/1999/xlink" x="0px" y="0px"
	 width="24px" height="24px" viewBox="0 0 24 24" enable-background="new 0 0 24 24" xml:space="preserve">
<path fill="#FFFFFF" d="M11,19v-2h2l6.038-6H15V5l-3-3L9,5v2H3v14h10v-2H11z M11,5h2v2h-2V5z M11,9h2v2h-2V9z M11,13h2v2h-2V13z
	 M7,19H5v-2h2V19z M7,15H5v-2h2V15z M7,11H5V9h2V11z"/>
<polygon fill="#FFFFFF" points="21,21 21,19.893 19.893,21 "/>
<path fill="#FFFFFF" d="M23.061,13.592l-1.15-1.15c-0.255-0.255-0.58-0.378-0.91-0.413C20.948,12.024,20.898,12,20.847,12
	c-0.384,0-0.767,0.147-1.057,0.442L19,13.232L17.232,15L14.5,17.732V21v0.002h3.27L17.771,21L21,17.772l2.061-2.061
	C23.65,15.122,23.65,14.172,23.061,13.592z M19,17.531L17.532,19l-0.452,0.452h-1.03v-1.03l0.95-0.95L17.472,17l2.028-2.028
	l1.029,1.03L19,17.531z"/>
</svg>
